<svg xmlns="http://www.w3.org/2000/svg" viewBox="0 0 478.78 506.16"><defs><style>.cls-1,.cls-2{fill:none;stroke:#b08c3e;stroke-miterlimit:10;}.cls-1{stroke-linecap:round;stroke-width:1.5px;}.cls-3{fill:#b08c3e;}.cls-4{fill:#fff;}</style></defs><title>Asset 2</title><g id="Layer_2" data-name="Layer 2"><g id="Layer_1-2" data-name="Layer 1"><polyline class="cls-1" points="30.63 218.06 30.63 383.74 241.17 505.29 451.72 383.74 451.72 140.62 241.17 19.07"/><polyline class="cls-2" points="32.73 223.59 4.13 316.16 169.4 494.46 406.44 440.48 478.22 208.2 312.95 29.9 274.28 38.71"/><path class="cls-3" d="M30.39,285.94q-.34-6.6-.31-13.25c.29-48,16-97.81,43.14-137,31.35-45.23,75.16-71.32,125-92.07a1.63,1.63,0,0,0-.87-3.15C85.23,63.91,21.81,178.46,29.93,285.94c0,.3.48.3.46,0Z"/><path class="cls-3" d="M31.8,240.26c.83-7.4-3.72-14.2-7.77-20.46C6,191.88-5.76,157.42,2.91,125.33c13,6.69,21.12,20.32,26,34.15,6.1,17.36,6.9,36,6.1,54.4C34.67,221.22,31.8,240.26,31.8,240.26Z"/><path class="cls-3" d="M31,224.38c7.81-19.37,21.52-36.82,40-46.5,11-5.75,23.23-8.6,35.34-11.3,5.84-1.3,11.74-2.59,17.72-2.44-9.35,25-32.24,43-57.1,52.79-12.16,4.77-25.22,8-35.69,15.83"/><path class="cls-3" d="M54.63,160.51a12.49,12.49,0,0,0-.16-6c-3-15.31-8.41-30.12-10.73-45.55s-1.22-32.21,7.64-45.05C64.2,80.94,73,103.11,66.94,123.59c-1.86,6.34-5.06,12.22-7.17,18.5a56.43,56.43,0,0,0-2.9,16.6"/><path class="cls-3" d="M60.55,149.67c5.37-7.46,10.8-15,17.62-21.16,16.6-15,39.51-20.47,61.36-25.38-5,16.76-17.38,30.75-32.37,39.74s-32.45,13.27-49.88,14.6"/><path class="cls-3" d="M99.71,99.28c5.1-5.61,4.81-14.41,2.08-21.49S94.34,64.59,91.18,57.7a50.09,50.09,0,0,1,.61-42.41C100.13,20.74,107.87,27.45,113,36s7.4,19.12,4.6,28.69c-2.73,9.35-9.85,16.78-13.71,25.73"/><path class="cls-3" d="M110.91,90.56c7.67-5.67,17.61-7.34,27.14-7.29s19,1.64,28.54,1.73a91.53,91.53,0,0,0,45.13-11.44c-3.86.29-7.62-1.11-11.31-2.25a91.38,91.38,0,0,0-79.73,13.33"/><path class="cls-3" d="M146.46,65c8.18-10.74,16.58-21.7,27.88-29.09,17.06-11.15,38.41-12.79,58.74-14.09-1.46,9.72-9.59,17-17.9,22.27A110.62,110.62,0,0,1,166.27,60.7c-7.8.72-15.92.66-23,4"/><path class="cls-3" d="M131.38,74.22c8.9-8.34,11.18-21.33,15.9-32.58A74.51,74.51,0,0,1,193.05,0c2.21,8.94-.8,18.53-6,26.14S174.66,39.73,167.57,45.6L138.23,69.87"/><path class="cls-4" d="M39.12,221.24c10.55-9,21-18,32.87-25.17,10.73-6.49,22.24-11,33.49-16.41.93-.44.25-1.78-.67-1.58-25,5.42-50.57,22.46-66.92,41.93a.87.87,0,0,0,1.23,1.23Z"/><path class="cls-4" d="M7.11,143.77C12,162.31,19.44,181.21,26.52,199a.93.93,0,0,0,1.8-.5c-4-18.53-10.61-38.75-20.24-55.18a.53.53,0,0,0-1,.41Z"/><path class="cls-4" d="M75,144.12c13.5-8.22,27.77-13.22,42.61-18.35a.6.6,0,0,0-.32-1.16c-15.26,3.2-29.47,10.79-42.43,19.28-.14.09,0,.32.14.23Z"/><path class="cls-4" d="M58.28,130.5a109.67,109.67,0,0,0-1.87-37.62A.57.57,0,0,0,55.3,93c.72,12.48,1,25,1.71,37.47a.64.64,0,0,0,1.27,0Z"/><path class="cls-4" d="M98.06,35.33c2.33,13.72,7.11,26.57,8.12,40.58a.37.37,0,0,0,.74,0,94.15,94.15,0,0,0-7.18-41,.87.87,0,0,0-1.68.46Z"/><path class="cls-4" d="M141.19,77.49c11.1-1.79,22.44-2,33.63-2.55a.64.64,0,0,0,0-1.27c-11.63-1.25-22.54.44-33.86,3-.55.12-.31.92.23.83Z"/><path class="cls-4" d="M161.34,55c15.38-6.67,30.35-14,45.91-20.39a.53.53,0,0,0-.28-1c-16,3.75-33,10.56-46.27,20.32a.64.64,0,0,0,.64,1.1Z"/></g></g></svg>